<svg width="390.8" height="80.603" viewBox="0 0 390.8 80.603" xmlns="http://www.w3.org/2000/svg"><g id="svgGroup" stroke-linecap="round" fill-rule="evenodd" font-size="9pt" stroke="#ffffff" stroke-width="0.1mm" fill="none" style="stroke:#ffffff;stroke-width:0.1mm;fill:none"><path d="M 242.7 51.301 L 242.7 17.801 L 237.7 17.801 L 237.7 1.401 L 274.7 1.401 L 274.7 17.801 L 270.7 17.801 L 270.7 56.401 Q 270.7 58.418 271.242 59.782 A 4.622 4.622 0 0 0 272.15 61.251 Q 273.414 62.602 275.778 62.776 A 9.858 9.858 0 0 0 276.5 62.801 Q 278.526 62.801 279.845 62.044 A 4.295 4.295 0 0 0 280.85 61.251 A 4.704 4.704 0 0 0 281.815 59.632 Q 282.3 58.309 282.3 56.401 L 282.3 17.801 L 278.3 17.801 L 278.3 1.401 L 312.6 1.401 L 312.6 17.801 L 307.6 17.801 L 307.6 51.301 Q 307.6 61.119 304.27 67.487 A 20.072 20.072 0 0 1 299.3 73.701 Q 292.678 79.207 281.472 80.319 A 60.488 60.488 0 0 1 275.5 80.601 A 57.438 57.438 0 0 1 266.176 79.893 Q 257.061 78.391 251.25 73.701 A 21.188 21.188 0 0 1 244.579 63.943 Q 242.7 58.567 242.7 51.301 Z M 390.8 1.401 L 390.8 25.601 L 373.6 25.601 L 373.6 17.801 L 367.2 17.801 L 367.2 62.801 L 374.2 62.801 L 374.2 79.201 L 332.2 79.201 L 332.2 62.801 L 339.2 62.801 L 339.2 17.801 L 332.8 17.801 L 332.8 25.601 L 315.6 25.601 L 315.6 1.401 L 390.8 1.401 Z M 57.3 1.401 L 74.2 62.801 L 78.2 62.801 L 78.2 79.201 L 39 79.201 L 39 62.801 L 45 62.801 L 43.4 54.801 L 29.8 54.801 L 28.2 62.801 L 34.2 62.801 L 34.2 79.201 L 0 79.201 L 0 62.801 L 4 62.801 L 20.9 1.401 L 57.3 1.401 Z M 81.4 79.201 L 81.4 62.801 L 86.4 62.801 L 86.4 17.801 L 81.4 17.801 L 81.4 1.401 L 127.3 1.401 A 49.842 49.842 0 0 1 134.575 1.899 Q 141.988 2.995 146.8 6.501 A 16.452 16.452 0 0 1 153.662 18.517 A 23.461 23.461 0 0 1 153.8 21.101 A 20.648 20.648 0 0 1 153.302 25.75 A 15.251 15.251 0 0 1 151 31.051 A 21.547 21.547 0 0 1 147.86 34.696 A 17.336 17.336 0 0 1 144.45 37.151 Q 140.7 39.201 137.2 39.901 L 137.2 40.901 Q 144.3 41.601 150 45.401 A 11.743 11.743 0 0 1 154.53 51.352 Q 155.7 54.561 155.7 59.001 Q 155.7 69.501 147.8 74.351 Q 139.9 79.201 127.3 79.201 L 81.4 79.201 Z M 185.39 79.568 A 56.03 56.03 0 0 0 196.5 80.601 A 65.361 65.361 0 0 0 199.93 80.513 Q 205.918 80.199 210.929 78.76 A 32.392 32.392 0 0 0 224.75 71.001 A 28.173 28.173 0 0 0 231.069 61.598 Q 233.009 57.029 233.913 51.26 A 70.996 70.996 0 0 0 234.7 40.301 A 73.291 73.291 0 0 0 234.114 30.738 Q 233.361 25.025 231.639 20.432 A 28.845 28.845 0 0 0 224.75 9.601 A 30.221 30.221 0 0 0 219.456 5.524 Q 214.306 2.391 207.61 1.035 A 56.03 56.03 0 0 0 196.5 0.001 A 65.361 65.361 0 0 0 193.07 0.089 Q 187.082 0.404 182.071 1.843 A 32.392 32.392 0 0 0 168.25 9.601 A 28.173 28.173 0 0 0 161.931 19.004 Q 159.991 23.574 159.087 29.342 A 70.996 70.996 0 0 0 158.3 40.301 A 73.291 73.291 0 0 0 158.886 49.865 Q 159.639 55.578 161.361 60.171 A 28.845 28.845 0 0 0 168.25 71.001 A 30.221 30.221 0 0 0 173.544 75.079 Q 178.694 78.212 185.39 79.568 Z M 203.3 55.401 L 203.3 25.201 A 13.497 13.497 0 0 0 203.158 23.172 Q 203 22.134 202.665 21.303 A 5.371 5.371 0 0 0 201.6 19.601 A 5.344 5.344 0 0 0 199.314 18.197 Q 198.456 17.919 197.413 17.836 A 11.576 11.576 0 0 0 196.5 17.801 A 10.208 10.208 0 0 0 194.552 17.975 Q 193.446 18.19 192.592 18.672 A 5.031 5.031 0 0 0 191.4 19.601 A 5.495 5.495 0 0 0 190.245 21.538 Q 189.939 22.388 189.804 23.441 A 13.949 13.949 0 0 0 189.7 25.201 L 189.7 55.401 A 14.136 14.136 0 0 0 189.834 57.425 Q 189.982 58.443 190.292 59.255 A 5.192 5.192 0 0 0 191.4 61.051 A 5.339 5.339 0 0 0 193.605 62.391 Q 194.463 62.673 195.508 62.761 A 11.796 11.796 0 0 0 196.5 62.801 A 10.208 10.208 0 0 0 198.448 62.628 Q 199.554 62.412 200.408 61.93 A 5.031 5.031 0 0 0 201.6 61.001 A 5.495 5.495 0 0 0 202.755 59.064 Q 203.061 58.215 203.196 57.162 A 13.949 13.949 0 0 0 203.3 55.401 Z M 114.4 62.801 L 120.5 62.801 Q 122.526 62.801 123.845 62.044 A 4.295 4.295 0 0 0 124.85 61.251 A 4.704 4.704 0 0 0 125.815 59.632 Q 126.3 58.309 126.3 56.401 L 126.3 52.001 Q 126.3 49.984 125.758 48.621 A 4.622 4.622 0 0 0 124.85 47.151 Q 123.586 45.801 121.222 45.627 A 9.858 9.858 0 0 0 120.5 45.601 L 114.4 45.601 L 114.4 62.801 Z M 36.1 24.301 L 32 44.201 L 41.2 44.201 L 37.1 24.301 L 36.1 24.301 Z M 114.4 34.201 L 119.8 34.201 Q 121.826 34.201 123.145 33.444 A 4.295 4.295 0 0 0 124.15 32.651 A 4.704 4.704 0 0 0 125.115 31.032 Q 125.6 29.709 125.6 27.801 L 125.6 24.201 Q 125.6 22.184 125.058 20.821 A 4.622 4.622 0 0 0 124.15 19.351 Q 122.886 18.001 120.522 17.827 A 9.858 9.858 0 0 0 119.8 17.801 L 114.4 17.801 L 114.4 34.201 Z" vector-effect="non-scaling-stroke"/></g></svg>