<svg width="931.301" height="81.302" viewBox="0 0 931.301 81.302" xmlns="http://www.w3.org/2000/svg"><g id="svgGroup" stroke-linecap="round" fill-rule="evenodd" font-size="9pt" stroke="#ffffff" stroke-width="0.1mm" fill="none" style="stroke:#ffffff;stroke-width:0.1mm;fill:none"><path d="M 782.9 79.901 L 715.4 79.901 L 715.4 63.501 L 720.4 63.501 L 720.4 18.501 L 715.4 18.501 L 715.4 2.101 L 782.9 2.101 L 782.9 32.301 L 760.5 32.301 L 760.5 18.501 L 748.4 18.501 L 748.4 34.301 L 757.2 34.301 L 757.2 45.701 L 748.4 45.701 L 748.4 63.501 L 760.5 63.501 L 760.5 47.701 L 782.9 47.701 L 782.9 79.901 Z M 786.7 79.901 L 786.7 63.501 L 791.7 63.501 L 791.7 18.501 L 786.7 18.501 L 786.7 2.101 L 832.6 2.101 A 50.31 50.31 0 0 1 840.024 2.612 Q 843.818 3.179 846.887 4.377 A 21.378 21.378 0 0 1 852.3 7.401 Q 858.252 12.04 858.994 21.734 A 37.554 37.554 0 0 1 859.1 24.601 A 27.986 27.986 0 0 1 858.546 30.303 A 20.997 20.997 0 0 1 856.4 36.201 Q 853.7 41.101 848.7 43.001 L 848.8 44.001 A 13.61 13.61 0 0 1 853.195 45.404 Q 858.4 48.217 858.4 55.801 L 858.4 63.501 L 863.1 63.501 L 863.1 79.901 L 831.4 79.901 L 831.4 56.401 A 21.428 21.428 0 0 0 831.309 54.357 Q 831.099 52.175 830.406 50.792 A 5.758 5.758 0 0 0 830.25 50.501 A 5.631 5.631 0 0 0 827.278 48.01 A 7.552 7.552 0 0 0 826.65 47.801 A 14.406 14.406 0 0 0 824.919 47.432 Q 823.093 47.147 820.551 47.107 A 54.118 54.118 0 0 0 819.7 47.101 L 819.7 63.501 L 826.3 63.501 L 826.3 79.901 L 786.7 79.901 Z M 866.4 75.901 L 866.4 56.101 L 888.4 56.101 Q 888.4 57.948 888.897 59.191 A 4.13 4.13 0 0 0 889.8 60.601 A 3.796 3.796 0 0 0 891.034 61.398 Q 892.211 61.891 894.05 61.981 A 17.472 17.472 0 0 0 894.9 62.001 Q 898 62.001 899.35 61.051 A 3.089 3.089 0 0 0 900.656 58.853 A 4.694 4.694 0 0 0 900.7 58.201 Q 900.7 56.601 899.4 55.451 Q 898.1 54.301 894.9 53.101 L 886.3 50.101 A 62.901 62.901 0 0 1 879.973 47.329 Q 873.684 44.12 870.35 40.201 A 19.366 19.366 0 0 1 866.428 32.523 Q 865.5 29.045 865.5 24.801 A 28.559 28.559 0 0 1 866.395 17.433 A 19.566 19.566 0 0 1 873.25 6.851 Q 880.191 1.343 895.432 0.768 A 97.313 97.313 0 0 1 899.1 0.701 A 76.853 76.853 0 0 1 910.566 1.528 A 66.083 66.083 0 0 1 915.45 2.451 A 57.245 57.245 0 0 1 920.747 3.917 Q 924.853 5.283 927.8 7.101 L 927.8 25.001 L 907.8 25.001 Q 907.8 20.462 902.691 20.043 A 13.375 13.375 0 0 0 901.6 20.001 Q 899.246 20.001 897.969 20.463 A 3.551 3.551 0 0 0 897.35 20.751 A 2.435 2.435 0 0 0 896.241 22.254 Q 896.119 22.695 896.102 23.234 A 5.547 5.547 0 0 0 896.1 23.401 A 3.178 3.178 0 0 0 896.451 24.905 Q 896.768 25.507 897.372 25.971 A 4.25 4.25 0 0 0 897.55 26.101 Q 899 27.101 902.3 28.201 L 911 31.201 A 52.234 52.234 0 0 1 917.337 33.795 Q 923.191 36.688 926.45 40.551 A 19.951 19.951 0 0 1 930.618 49.125 A 29.08 29.08 0 0 1 931.3 55.601 A 29.945 29.945 0 0 1 930.335 63.434 A 20.644 20.644 0 0 1 922.75 74.801 A 27.846 27.846 0 0 1 914.491 79.009 Q 910.611 80.28 905.87 80.846 A 69.067 69.067 0 0 1 897.7 81.301 A 99.739 99.739 0 0 1 884.442 80.448 A 86.426 86.426 0 0 1 879.55 79.651 Q 871.621 78.121 867.089 76.203 A 26.83 26.83 0 0 1 866.4 75.901 Z M 336.4 79.901 L 336.4 71.301 A 49.469 49.469 0 0 1 336.96 63.678 A 36.639 36.639 0 0 1 338.95 56.101 A 33.556 33.556 0 0 1 343.624 47.857 A 42.964 42.964 0 0 1 347.3 43.651 A 60.798 60.798 0 0 1 352.269 39.2 Q 355.033 36.967 358.404 34.671 A 130.984 130.984 0 0 1 363.3 31.501 A 42.95 42.95 0 0 0 364.849 30.476 Q 366.652 29.221 367.55 28.251 Q 368.8 26.901 368.8 25.001 Q 368.8 20.901 362.9 20.901 Q 358.5 20.901 352.8 23.201 A 44.652 44.652 0 0 0 343.446 28.302 A 41.397 41.397 0 0 0 342.5 29.001 L 336.6 7.701 A 69.913 69.913 0 0 1 344.168 4.485 A 92.239 92.239 0 0 1 351.3 2.251 Q 359.6 0.001 368 0.001 Q 381.8 0.001 389.4 6.101 A 19.86 19.86 0 0 1 396.732 19.378 A 29.174 29.174 0 0 1 397 23.401 Q 397 29.401 394.35 33.951 A 29.162 29.162 0 0 1 389.865 39.852 A 26.311 26.311 0 0 1 387.95 41.601 Q 385.379 43.726 381.751 46.274 A 177.56 177.56 0 0 1 378.2 48.701 Q 372.172 52.66 369.017 55.607 A 27.314 27.314 0 0 0 368.35 56.251 Q 365.2 59.401 365.2 63.501 L 377.3 63.501 L 377.3 57.801 L 397.8 57.801 L 397.8 79.901 L 336.4 79.901 Z M 681.5 18.501 L 681.5 2.101 L 712.2 2.101 L 712.2 18.501 L 708.2 18.501 L 688.9 53.101 L 688.9 63.501 L 693.9 63.501 L 693.9 79.901 L 655.9 79.901 L 655.9 63.501 L 660.9 63.501 L 660.9 53.101 L 641 18.501 L 637 18.501 L 637 2.101 L 675.7 2.101 L 675.7 18.501 L 672.2 18.501 L 678.1 34.001 L 679.1 34.001 L 685 18.501 L 681.5 18.501 Z M 234.2 2.101 L 234.2 26.301 L 217 26.301 L 217 18.501 L 210.6 18.501 L 210.6 63.501 L 217.6 63.501 L 217.6 79.901 L 175.6 79.901 L 175.6 63.501 L 182.6 63.501 L 182.6 18.501 L 176.2 18.501 L 176.2 26.301 L 159 26.301 L 159 2.101 L 234.2 2.101 Z M 283.1 2.101 L 300 63.501 L 304 63.501 L 304 79.901 L 264.8 79.901 L 264.8 63.501 L 270.8 63.501 L 269.2 55.501 L 255.6 55.501 L 254 63.501 L 260 63.501 L 260 79.901 L 225.8 79.901 L 225.8 63.501 L 229.8 63.501 L 246.7 2.101 L 283.1 2.101 Z M 627.7 2.101 L 644.6 63.501 L 648.6 63.501 L 648.6 79.901 L 609.4 79.901 L 609.4 63.501 L 615.4 63.501 L 613.8 55.501 L 600.2 55.501 L 598.6 63.501 L 604.6 63.501 L 604.6 79.901 L 570.4 79.901 L 570.4 63.501 L 574.4 63.501 L 591.3 2.101 L 627.7 2.101 Z M 567.8 79.901 L 505.9 79.901 L 505.9 63.501 L 510.9 63.501 L 510.9 18.501 L 505.9 18.501 L 505.9 2.101 L 548.1 2.101 L 548.1 18.501 L 538.9 18.501 L 538.9 63.501 L 547.9 63.501 L 547.9 54.301 L 567.8 54.301 L 567.8 79.901 Z M 432.1 79.901 L 432.1 63.501 L 437.1 63.501 L 437.1 18.501 L 432.1 18.501 L 432.1 2.101 L 476 2.101 Q 484.604 2.101 490.495 4.57 A 21.026 21.026 0 0 1 495.7 7.651 A 17.055 17.055 0 0 1 501.006 15.481 Q 502.01 18.375 502.339 21.948 A 39.82 39.82 0 0 1 502.5 25.601 A 35.648 35.648 0 0 1 501.932 32.197 Q 500.534 39.605 495.7 43.551 Q 490.432 47.85 481.504 48.819 A 51.085 51.085 0 0 1 476 49.101 L 465.1 49.101 L 465.1 63.501 L 474.7 63.501 L 474.7 79.901 L 432.1 79.901 Z M 0 79.901 L 0 63.501 L 5 63.501 L 5 18.601 L 0 18.601 L 0 2.101 L 40.6 2.101 A 49.376 49.376 0 0 1 51.718 3.283 Q 60.626 5.34 66.853 10.978 A 31.745 31.745 0 0 1 67.15 11.251 A 27.327 27.327 0 0 1 74.012 21.782 Q 77 29.655 77 41.001 Q 77 53.388 73.438 61.635 A 26.678 26.678 0 0 1 67.15 70.751 Q 57.3 79.901 40.6 79.901 L 0 79.901 Z M 106.89 80.267 A 56.03 56.03 0 0 0 118 81.301 A 65.361 65.361 0 0 0 121.43 81.213 Q 127.418 80.898 132.429 79.459 A 32.392 32.392 0 0 0 146.25 71.701 A 28.173 28.173 0 0 0 152.569 62.298 Q 154.509 57.728 155.413 51.96 A 70.996 70.996 0 0 0 156.2 41.001 A 73.291 73.291 0 0 0 155.614 31.437 Q 154.861 25.724 153.139 21.131 A 28.845 28.845 0 0 0 146.25 10.301 A 30.221 30.221 0 0 0 140.956 6.223 Q 135.806 3.09 129.11 1.734 A 56.03 56.03 0 0 0 118 0.701 A 65.361 65.361 0 0 0 114.57 0.789 Q 108.582 1.104 103.571 2.542 A 32.392 32.392 0 0 0 89.75 10.301 A 28.173 28.173 0 0 0 83.431 19.704 Q 81.491 24.273 80.587 30.042 A 70.996 70.996 0 0 0 79.8 41.001 A 73.291 73.291 0 0 0 80.386 50.565 Q 81.139 56.277 82.861 60.87 A 28.845 28.845 0 0 0 89.75 71.701 A 30.221 30.221 0 0 0 95.044 75.778 Q 100.194 78.912 106.89 80.267 Z M 33 63.501 L 38.8 63.501 A 10.208 10.208 0 0 0 40.748 63.327 Q 41.854 63.112 42.708 62.63 A 5.031 5.031 0 0 0 43.9 61.701 A 5.495 5.495 0 0 0 45.055 59.764 Q 45.361 58.914 45.496 57.861 A 13.949 13.949 0 0 0 45.6 56.101 L 45.6 25.901 A 11.675 11.675 0 0 0 45.286 23.063 Q 44.139 18.501 38.8 18.501 L 33 18.501 L 33 63.501 Z M 124.8 56.101 L 124.8 25.901 A 13.497 13.497 0 0 0 124.658 23.871 Q 124.5 22.833 124.165 22.003 A 5.371 5.371 0 0 0 123.1 20.301 A 5.344 5.344 0 0 0 120.814 18.896 Q 119.956 18.618 118.913 18.536 A 11.576 11.576 0 0 0 118 18.501 A 10.208 10.208 0 0 0 116.052 18.674 Q 114.946 18.89 114.092 19.372 A 5.031 5.031 0 0 0 112.9 20.301 A 5.495 5.495 0 0 0 111.745 22.238 Q 111.439 23.088 111.304 24.14 A 13.949 13.949 0 0 0 111.2 25.901 L 111.2 56.101 A 14.136 14.136 0 0 0 111.334 58.125 Q 111.482 59.142 111.792 59.955 A 5.192 5.192 0 0 0 112.9 61.751 A 5.339 5.339 0 0 0 115.105 63.09 Q 115.963 63.372 117.008 63.461 A 11.796 11.796 0 0 0 118 63.501 A 10.208 10.208 0 0 0 119.948 63.327 Q 121.054 63.112 121.908 62.63 A 5.031 5.031 0 0 0 123.1 61.701 A 5.495 5.495 0 0 0 124.255 59.764 Q 124.561 58.914 124.696 57.861 A 13.949 13.949 0 0 0 124.8 56.101 Z M 261.9 25.001 L 257.8 44.901 L 267 44.901 L 262.9 25.001 L 261.9 25.001 Z M 606.5 25.001 L 602.4 44.901 L 611.6 44.901 L 607.5 25.001 L 606.5 25.001 Z M 819.7 34.901 L 825.1 34.901 Q 827.126 34.901 828.445 34.144 A 4.295 4.295 0 0 0 829.45 33.351 A 4.704 4.704 0 0 0 830.415 31.732 Q 830.9 30.409 830.9 28.501 L 830.9 24.901 Q 830.9 22.884 830.358 21.521 A 4.622 4.622 0 0 0 829.45 20.051 Q 828.186 18.7 825.822 18.526 A 9.858 9.858 0 0 0 825.1 18.501 L 819.7 18.501 L 819.7 34.901 Z M 465.1 34.901 L 468.5 34.901 Q 474.218 34.901 474.299 28.681 A 13.825 13.825 0 0 0 474.3 28.501 L 474.3 24.901 Q 474.3 22.884 473.758 21.521 A 4.622 4.622 0 0 0 472.85 20.051 Q 471.586 18.7 469.222 18.526 A 9.858 9.858 0 0 0 468.5 18.501 L 465.1 18.501 L 465.1 34.901 Z" vector-effect="non-scaling-stroke"/></g></svg>