<svg width="863.801" height="80.601" viewBox="0 0 863.801 80.601" xmlns="http://www.w3.org/2000/svg"><g id="svgGroup" stroke-linecap="round" fill-rule="evenodd" font-size="9pt" stroke="#ffffff" stroke-width="0.1mm" fill="none" style="stroke:#ffffff;stroke-width:0.1mm;fill:none"><path d="M 110.3 1.4 L 110.3 17.8 L 105.3 17.8 L 105.3 62.8 L 110.3 62.8 L 110.3 79.2 L 72.5 79.2 L 72.5 62.8 L 77.3 62.8 L 77.3 27.8 L 60.3 79.2 L 45.5 79.2 L 28 28.3 L 28 62.8 L 32.8 62.8 L 32.8 79.2 L 0 79.2 L 0 62.8 L 5 62.8 L 5 17.8 L 0 17.8 L 0 1.4 L 45.8 1.4 L 56.2 32.6 L 66.2 1.4 L 110.3 1.4 Z M 715.4 79.2 L 647.9 79.2 L 647.9 62.8 L 652.9 62.8 L 652.9 17.8 L 647.9 17.8 L 647.9 1.4 L 715.4 1.4 L 715.4 31.6 L 693 31.6 L 693 17.8 L 680.9 17.8 L 680.9 33.6 L 689.7 33.6 L 689.7 45 L 680.9 45 L 680.9 62.8 L 693 62.8 L 693 47 L 715.4 47 L 715.4 79.2 Z M 719.2 79.2 L 719.2 62.8 L 724.2 62.8 L 724.2 17.8 L 719.2 17.8 L 719.2 1.4 L 765.1 1.4 A 50.31 50.31 0 0 1 772.524 1.911 Q 776.318 2.479 779.387 3.676 A 21.378 21.378 0 0 1 784.8 6.7 Q 790.752 11.339 791.494 21.034 A 37.554 37.554 0 0 1 791.6 23.9 A 27.986 27.986 0 0 1 791.046 29.603 A 20.997 20.997 0 0 1 788.9 35.5 Q 786.2 40.4 781.2 42.3 L 781.3 43.3 A 13.61 13.61 0 0 1 785.695 44.703 Q 790.9 47.516 790.9 55.1 L 790.9 62.8 L 795.6 62.8 L 795.6 79.2 L 763.9 79.2 L 763.9 55.7 A 21.428 21.428 0 0 0 763.809 53.657 Q 763.599 51.475 762.906 50.092 A 5.758 5.758 0 0 0 762.75 49.8 A 5.631 5.631 0 0 0 759.778 47.309 A 7.552 7.552 0 0 0 759.15 47.1 A 14.406 14.406 0 0 0 757.419 46.731 Q 755.593 46.447 753.051 46.407 A 54.118 54.118 0 0 0 752.2 46.4 L 752.2 62.8 L 758.8 62.8 L 758.8 79.2 L 719.2 79.2 Z M 798.9 75.2 L 798.9 55.4 L 820.9 55.4 Q 820.9 57.247 821.397 58.49 A 4.13 4.13 0 0 0 822.3 59.9 A 3.796 3.796 0 0 0 823.534 60.697 Q 824.711 61.191 826.55 61.28 A 17.472 17.472 0 0 0 827.4 61.3 Q 830.5 61.3 831.85 60.35 A 3.089 3.089 0 0 0 833.156 58.152 A 4.694 4.694 0 0 0 833.2 57.5 Q 833.2 55.9 831.9 54.75 Q 830.6 53.6 827.4 52.4 L 818.8 49.4 A 62.901 62.901 0 0 1 812.473 46.629 Q 806.184 43.419 802.85 39.5 A 19.366 19.366 0 0 1 798.928 31.822 Q 798 28.344 798 24.1 A 28.559 28.559 0 0 1 798.895 16.733 A 19.566 19.566 0 0 1 805.75 6.15 Q 812.691 0.643 827.932 0.067 A 97.313 97.313 0 0 1 831.6 0 A 76.853 76.853 0 0 1 843.066 0.827 A 66.083 66.083 0 0 1 847.95 1.75 A 57.245 57.245 0 0 1 853.247 3.216 Q 857.353 4.582 860.3 6.4 L 860.3 24.3 L 840.3 24.3 Q 840.3 19.761 835.191 19.343 A 13.375 13.375 0 0 0 834.1 19.3 Q 831.746 19.3 830.469 19.762 A 3.551 3.551 0 0 0 829.85 20.05 A 2.435 2.435 0 0 0 828.741 21.554 Q 828.619 21.994 828.602 22.533 A 5.547 5.547 0 0 0 828.6 22.7 A 3.178 3.178 0 0 0 828.951 24.204 Q 829.268 24.806 829.872 25.271 A 4.25 4.25 0 0 0 830.05 25.4 Q 831.5 26.4 834.8 27.5 L 843.5 30.5 A 52.234 52.234 0 0 1 849.837 33.094 Q 855.691 35.987 858.95 39.85 A 19.951 19.951 0 0 1 863.118 48.425 A 29.08 29.08 0 0 1 863.8 54.9 A 29.945 29.945 0 0 1 862.835 62.733 A 20.644 20.644 0 0 1 855.25 74.1 A 27.846 27.846 0 0 1 846.991 78.309 Q 843.111 79.58 838.37 80.146 A 69.067 69.067 0 0 1 830.2 80.6 A 99.739 99.739 0 0 1 816.942 79.748 A 86.426 86.426 0 0 1 812.05 78.95 Q 804.121 77.42 799.589 75.503 A 26.83 26.83 0 0 1 798.9 75.2 Z M 614 17.8 L 614 1.4 L 644.7 1.4 L 644.7 17.8 L 640.7 17.8 L 621.4 52.4 L 621.4 62.8 L 626.4 62.8 L 626.4 79.2 L 588.4 79.2 L 588.4 62.8 L 593.4 62.8 L 593.4 52.4 L 573.5 17.8 L 569.5 17.8 L 569.5 1.4 L 608.2 1.4 L 608.2 17.8 L 604.7 17.8 L 610.6 33.3 L 611.6 33.3 L 617.5 17.8 L 614 17.8 Z M 560.2 1.4 L 577.1 62.8 L 581.1 62.8 L 581.1 79.2 L 541.9 79.2 L 541.9 62.8 L 547.9 62.8 L 546.3 54.8 L 532.7 54.8 L 531.1 62.8 L 537.1 62.8 L 537.1 79.2 L 502.9 79.2 L 502.9 62.8 L 506.9 62.8 L 523.8 1.4 L 560.2 1.4 Z M 176.2 79.2 L 114.3 79.2 L 114.3 62.8 L 119.3 62.8 L 119.3 17.8 L 114.3 17.8 L 114.3 1.4 L 156.5 1.4 L 156.5 17.8 L 147.3 17.8 L 147.3 62.8 L 156.3 62.8 L 156.3 53.6 L 176.2 53.6 L 176.2 79.2 Z M 500.3 79.2 L 438.4 79.2 L 438.4 62.8 L 443.4 62.8 L 443.4 17.8 L 438.4 17.8 L 438.4 1.4 L 480.6 1.4 L 480.6 17.8 L 471.4 17.8 L 471.4 62.8 L 480.4 62.8 L 480.4 53.6 L 500.3 53.6 L 500.3 79.2 Z M 179.6 79.2 L 179.6 62.8 L 184.6 62.8 L 184.6 17.8 L 179.6 17.8 L 179.6 1.4 L 225.5 1.4 A 49.842 49.842 0 0 1 232.775 1.898 Q 240.188 2.994 245 6.5 A 16.452 16.452 0 0 1 251.862 18.515 A 23.461 23.461 0 0 1 252 21.1 A 20.648 20.648 0 0 1 251.502 25.749 A 15.251 15.251 0 0 1 249.2 31.05 A 21.547 21.547 0 0 1 246.06 34.695 A 17.336 17.336 0 0 1 242.65 37.15 Q 238.9 39.2 235.4 39.9 L 235.4 40.9 Q 242.5 41.6 248.2 45.4 A 11.743 11.743 0 0 1 252.73 51.351 Q 253.9 54.56 253.9 59 Q 253.9 69.5 246 74.35 Q 238.1 79.2 225.5 79.2 L 179.6 79.2 Z M 257.1 79.2 L 257.1 62.8 L 262.1 62.8 L 262.1 17.8 L 257.1 17.8 L 257.1 1.4 L 303 1.4 A 49.842 49.842 0 0 1 310.275 1.898 Q 317.688 2.994 322.5 6.5 A 16.452 16.452 0 0 1 329.362 18.515 A 23.461 23.461 0 0 1 329.5 21.1 A 20.648 20.648 0 0 1 329.002 25.749 A 15.251 15.251 0 0 1 326.7 31.05 A 21.547 21.547 0 0 1 323.56 34.695 A 17.336 17.336 0 0 1 320.15 37.15 Q 316.4 39.2 312.9 39.9 L 312.9 40.9 Q 320 41.6 325.7 45.4 A 11.743 11.743 0 0 1 330.23 51.351 Q 331.4 54.56 331.4 59 Q 331.4 69.5 323.5 74.35 Q 315.6 79.2 303 79.2 L 257.1 79.2 Z M 364.6 79.2 L 364.6 62.8 L 369.6 62.8 L 369.6 17.8 L 364.6 17.8 L 364.6 1.4 L 408.5 1.4 Q 417.104 1.4 422.995 3.869 A 21.026 21.026 0 0 1 428.2 6.95 A 17.055 17.055 0 0 1 433.506 14.78 Q 434.51 17.674 434.839 21.248 A 39.82 39.82 0 0 1 435 24.9 A 35.648 35.648 0 0 1 434.432 31.497 Q 433.034 38.905 428.2 42.85 Q 422.932 47.15 414.004 48.118 A 51.085 51.085 0 0 1 408.5 48.4 L 397.6 48.4 L 397.6 62.8 L 407.2 62.8 L 407.2 79.2 L 364.6 79.2 Z M 212.6 62.8 L 218.7 62.8 Q 220.726 62.8 222.045 62.043 A 4.295 4.295 0 0 0 223.05 61.25 A 4.704 4.704 0 0 0 224.015 59.631 Q 224.5 58.308 224.5 56.4 L 224.5 52 Q 224.5 49.983 223.958 48.62 A 4.622 4.622 0 0 0 223.05 47.15 Q 221.786 45.8 219.422 45.626 A 9.858 9.858 0 0 0 218.7 45.6 L 212.6 45.6 L 212.6 62.8 Z M 290.1 62.8 L 296.2 62.8 Q 298.226 62.8 299.545 62.043 A 4.295 4.295 0 0 0 300.55 61.25 A 4.704 4.704 0 0 0 301.515 59.631 Q 302 58.308 302 56.4 L 302 52 Q 302 49.983 301.458 48.62 A 4.622 4.622 0 0 0 300.55 47.15 Q 299.286 45.8 296.922 45.626 A 9.858 9.858 0 0 0 296.2 45.6 L 290.1 45.6 L 290.1 62.8 Z M 539 24.3 L 534.9 44.2 L 544.1 44.2 L 540 24.3 L 539 24.3 Z M 212.6 34.2 L 218 34.2 Q 220.026 34.2 221.345 33.443 A 4.295 4.295 0 0 0 222.35 32.65 A 4.704 4.704 0 0 0 223.315 31.031 Q 223.8 29.708 223.8 27.8 L 223.8 24.2 Q 223.8 22.183 223.258 20.82 A 4.622 4.622 0 0 0 222.35 19.35 Q 221.086 18 218.722 17.826 A 9.858 9.858 0 0 0 218 17.8 L 212.6 17.8 L 212.6 34.2 Z M 290.1 34.2 L 295.5 34.2 Q 297.526 34.2 298.845 33.443 A 4.295 4.295 0 0 0 299.85 32.65 A 4.704 4.704 0 0 0 300.815 31.031 Q 301.3 29.708 301.3 27.8 L 301.3 24.2 Q 301.3 22.183 300.758 20.82 A 4.622 4.622 0 0 0 299.85 19.35 Q 298.586 18 296.222 17.826 A 9.858 9.858 0 0 0 295.5 17.8 L 290.1 17.8 L 290.1 34.2 Z M 752.2 34.2 L 757.6 34.2 Q 759.626 34.2 760.945 33.443 A 4.295 4.295 0 0 0 761.95 32.65 A 4.704 4.704 0 0 0 762.915 31.031 Q 763.4 29.708 763.4 27.8 L 763.4 24.2 Q 763.4 22.183 762.858 20.82 A 4.622 4.622 0 0 0 761.95 19.35 Q 760.686 18 758.322 17.826 A 9.858 9.858 0 0 0 757.6 17.8 L 752.2 17.8 L 752.2 34.2 Z M 397.6 34.2 L 401 34.2 Q 406.718 34.2 406.799 27.981 A 13.825 13.825 0 0 0 406.8 27.8 L 406.8 24.2 Q 406.8 22.183 406.258 20.82 A 4.622 4.622 0 0 0 405.35 19.35 Q 404.086 18 401.722 17.826 A 9.858 9.858 0 0 0 401 17.8 L 397.6 17.8 L 397.6 34.2 Z" vector-effect="non-scaling-stroke"/></g></svg>