<svg width="676.703" height="80.603" viewBox="0 0 676.703 80.603" xmlns="http://www.w3.org/2000/svg"><g id="svgGroup" stroke-linecap="round" fill-rule="evenodd" font-size="9pt" stroke="#ffffff" stroke-width="0.1mm" fill="none" style="stroke:#ffffff;stroke-width:0.1mm;fill:none"><path d="M 608.101 1.401 L 608.101 17.801 L 603.101 17.801 L 603.101 62.801 L 608.101 62.801 L 608.101 79.201 L 570.301 79.201 L 570.301 62.801 L 575.101 62.801 L 575.101 27.801 L 558.101 79.201 L 543.301 79.201 L 525.801 28.301 L 525.801 62.801 L 530.601 62.801 L 530.601 79.201 L 497.801 79.201 L 497.801 62.801 L 502.801 62.801 L 502.801 17.801 L 497.801 17.801 L 497.801 1.401 L 543.601 1.401 L 554.001 32.601 L 564.001 1.401 L 608.101 1.401 Z M 413.401 79.201 L 345.901 79.201 L 345.901 62.801 L 350.901 62.801 L 350.901 17.801 L 345.901 17.801 L 345.901 1.401 L 413.401 1.401 L 413.401 31.601 L 391.001 31.601 L 391.001 17.801 L 378.901 17.801 L 378.901 33.601 L 387.701 33.601 L 387.701 45.001 L 378.901 45.001 L 378.901 62.801 L 391.001 62.801 L 391.001 47.001 L 413.401 47.001 L 413.401 79.201 Z M 84.401 51.301 L 84.401 17.801 L 79.401 17.801 L 79.401 1.401 L 116.401 1.401 L 116.401 17.801 L 112.401 17.801 L 112.401 56.401 Q 112.401 58.418 112.943 59.782 A 4.622 4.622 0 0 0 113.851 61.251 Q 115.115 62.602 117.48 62.776 A 9.858 9.858 0 0 0 118.201 62.801 Q 120.228 62.801 121.546 62.044 A 4.295 4.295 0 0 0 122.551 61.251 A 4.704 4.704 0 0 0 123.517 59.632 Q 124.001 58.309 124.001 56.401 L 124.001 17.801 L 120.001 17.801 L 120.001 1.401 L 154.301 1.401 L 154.301 17.801 L 149.301 17.801 L 149.301 51.301 Q 149.301 61.119 145.971 67.487 A 20.072 20.072 0 0 1 141.001 73.701 Q 134.379 79.207 123.174 80.319 A 60.488 60.488 0 0 1 117.201 80.601 A 57.438 57.438 0 0 1 107.877 79.893 Q 98.763 78.391 92.951 73.701 A 21.188 21.188 0 0 1 86.28 63.943 Q 84.401 58.567 84.401 51.301 Z M 157.901 79.201 L 157.901 62.801 L 162.901 62.801 L 162.901 17.801 L 157.901 17.801 L 157.901 1.401 L 203.801 1.401 A 50.31 50.31 0 0 1 211.225 1.912 Q 215.019 2.48 218.088 3.677 A 21.378 21.378 0 0 1 223.501 6.701 Q 229.453 11.34 230.195 21.035 A 37.554 37.554 0 0 1 230.301 23.901 A 27.986 27.986 0 0 1 229.747 29.604 A 20.997 20.997 0 0 1 227.601 35.501 Q 224.901 40.401 219.901 42.301 L 220.001 43.301 A 13.61 13.61 0 0 1 224.396 44.704 Q 229.601 47.517 229.601 55.101 L 229.601 62.801 L 234.301 62.801 L 234.301 79.201 L 202.601 79.201 L 202.601 55.701 A 21.428 21.428 0 0 0 202.51 53.658 Q 202.301 51.476 201.608 50.093 A 5.758 5.758 0 0 0 201.451 49.801 A 5.631 5.631 0 0 0 198.479 47.31 A 7.552 7.552 0 0 0 197.851 47.101 A 14.406 14.406 0 0 0 196.12 46.732 Q 194.294 46.448 191.752 46.408 A 54.118 54.118 0 0 0 190.901 46.401 L 190.901 62.801 L 197.501 62.801 L 197.501 79.201 L 157.901 79.201 Z M 611.801 75.201 L 611.801 55.401 L 633.801 55.401 Q 633.801 57.248 634.298 58.491 A 4.13 4.13 0 0 0 635.201 59.901 A 3.796 3.796 0 0 0 636.435 60.698 Q 637.612 61.192 639.451 61.281 A 17.472 17.472 0 0 0 640.301 61.301 Q 643.401 61.301 644.751 60.351 A 3.089 3.089 0 0 0 646.058 58.154 A 4.694 4.694 0 0 0 646.101 57.501 Q 646.101 55.901 644.801 54.751 Q 643.501 53.601 640.301 52.401 L 631.701 49.401 A 62.901 62.901 0 0 1 625.374 46.63 Q 619.086 43.42 615.751 39.501 A 19.366 19.366 0 0 1 611.829 31.823 Q 610.901 28.345 610.901 24.101 A 28.559 28.559 0 0 1 611.796 16.734 A 19.566 19.566 0 0 1 618.651 6.151 Q 625.592 0.644 640.833 0.068 A 97.313 97.313 0 0 1 644.501 0.001 A 76.853 76.853 0 0 1 655.967 0.829 A 66.083 66.083 0 0 1 660.851 1.751 A 57.245 57.245 0 0 1 666.148 3.217 Q 670.254 4.583 673.201 6.401 L 673.201 24.301 L 653.201 24.301 Q 653.201 19.762 648.092 19.344 A 13.375 13.375 0 0 0 647.001 19.301 Q 644.647 19.301 643.371 19.763 A 3.551 3.551 0 0 0 642.751 20.051 A 2.435 2.435 0 0 0 641.642 21.555 Q 641.52 21.996 641.504 22.534 A 5.547 5.547 0 0 0 641.501 22.701 A 3.178 3.178 0 0 0 641.852 24.205 Q 642.17 24.808 642.773 25.272 A 4.25 4.25 0 0 0 642.951 25.401 Q 644.401 26.401 647.701 27.501 L 656.401 30.501 A 52.234 52.234 0 0 1 662.738 33.095 Q 668.593 35.988 671.851 39.851 A 19.951 19.951 0 0 1 676.019 48.426 A 29.08 29.08 0 0 1 676.701 54.901 A 29.945 29.945 0 0 1 675.736 62.734 A 20.644 20.644 0 0 1 668.151 74.101 A 27.846 27.846 0 0 1 659.892 78.31 Q 656.013 79.581 651.271 80.147 A 69.067 69.067 0 0 1 643.101 80.601 A 99.739 99.739 0 0 1 629.844 79.749 A 86.426 86.426 0 0 1 624.951 78.951 Q 617.022 77.421 612.49 75.504 A 26.83 26.83 0 0 1 611.801 75.201 Z M 342.501 1.401 L 342.501 25.601 L 325.301 25.601 L 325.301 17.801 L 318.901 17.801 L 318.901 62.801 L 325.901 62.801 L 325.901 79.201 L 283.901 79.201 L 283.901 62.801 L 290.901 62.801 L 290.901 17.801 L 284.501 17.801 L 284.501 25.601 L 267.301 25.601 L 267.301 1.401 L 342.501 1.401 Z M 473.701 1.401 L 490.601 62.801 L 494.601 62.801 L 494.601 79.201 L 455.401 79.201 L 455.401 62.801 L 461.401 62.801 L 459.801 54.801 L 446.201 54.801 L 444.601 62.801 L 450.601 62.801 L 450.601 79.201 L 416.401 79.201 L 416.401 62.801 L 420.401 62.801 L 437.301 1.401 L 473.701 1.401 Z M 27.091 79.568 A 56.03 56.03 0 0 0 38.201 80.601 A 65.361 65.361 0 0 0 41.631 80.513 Q 47.619 80.199 52.63 78.76 A 32.392 32.392 0 0 0 66.451 71.001 A 28.173 28.173 0 0 0 72.77 61.598 Q 74.711 57.029 75.614 51.26 A 70.996 70.996 0 0 0 76.401 40.301 A 73.291 73.291 0 0 0 75.815 30.738 Q 75.062 25.025 73.34 20.432 A 28.845 28.845 0 0 0 66.451 9.601 A 30.221 30.221 0 0 0 61.157 5.524 Q 56.008 2.391 49.312 1.035 A 56.03 56.03 0 0 0 38.201 0.001 A 65.361 65.361 0 0 0 34.771 0.089 Q 28.783 0.404 23.773 1.843 A 32.392 32.392 0 0 0 9.951 9.601 A 28.173 28.173 0 0 0 3.633 19.004 Q 1.692 23.574 0.788 29.342 A 70.996 70.996 0 0 0 0.001 40.301 A 73.291 73.291 0 0 0 0.587 49.865 Q 1.341 55.578 3.063 60.171 A 28.845 28.845 0 0 0 9.951 71.001 A 30.221 30.221 0 0 0 15.245 75.079 Q 20.395 78.212 27.091 79.568 Z M 45.001 55.401 L 45.001 25.201 A 13.497 13.497 0 0 0 44.859 23.172 Q 44.701 22.134 44.366 21.303 A 5.371 5.371 0 0 0 43.301 19.601 A 5.344 5.344 0 0 0 41.015 18.197 Q 40.157 17.919 39.115 17.836 A 11.576 11.576 0 0 0 38.201 17.801 A 10.208 10.208 0 0 0 36.253 17.975 Q 35.147 18.19 34.293 18.672 A 5.031 5.031 0 0 0 33.101 19.601 A 5.495 5.495 0 0 0 31.947 21.538 Q 31.64 22.388 31.506 23.441 A 13.949 13.949 0 0 0 31.401 25.201 L 31.401 55.401 A 14.136 14.136 0 0 0 31.536 57.425 Q 31.683 58.443 31.993 59.255 A 5.192 5.192 0 0 0 33.101 61.051 A 5.339 5.339 0 0 0 35.306 62.391 Q 36.164 62.673 37.209 62.761 A 11.796 11.796 0 0 0 38.201 62.801 A 10.208 10.208 0 0 0 40.149 62.628 Q 41.255 62.412 42.109 61.93 A 5.031 5.031 0 0 0 43.301 61.001 A 5.495 5.495 0 0 0 44.456 59.064 Q 44.763 58.215 44.897 57.162 A 13.949 13.949 0 0 0 45.001 55.401 Z M 452.501 24.301 L 448.401 44.201 L 457.601 44.201 L 453.501 24.301 L 452.501 24.301 Z M 190.901 34.201 L 196.301 34.201 Q 198.328 34.201 199.646 33.444 A 4.295 4.295 0 0 0 200.651 32.651 A 4.704 4.704 0 0 0 201.617 31.032 Q 202.101 29.709 202.101 27.801 L 202.101 24.201 Q 202.101 22.184 201.559 20.821 A 4.622 4.622 0 0 0 200.651 19.351 Q 199.388 18.001 197.023 17.827 A 9.858 9.858 0 0 0 196.301 17.801 L 190.901 17.801 L 190.901 34.201 Z" vector-effect="non-scaling-stroke"/></g></svg>