<svg width="1154.501" height="80.603" viewBox="0 0 1154.501 80.603" xmlns="http://www.w3.org/2000/svg"><g id="svgGroup" stroke-linecap="round" fill-rule="evenodd" font-size="9pt" stroke="#ffffff" stroke-width="0.1mm" fill="none" style="stroke:#ffffff;stroke-width:0.1mm;fill:none"><path d="M 510.7 17.801 L 510.7 1.401 L 543.5 1.401 L 543.5 17.801 L 538.5 17.801 L 538.5 79.201 L 510.4 79.201 L 481.1 34.101 L 481.1 62.801 L 485.9 62.801 L 485.9 79.201 L 453.1 79.201 L 453.1 62.801 L 458.1 62.801 L 458.1 17.801 L 453.1 17.801 L 453.1 1.401 L 489.2 1.401 L 515.5 41.501 L 515.5 17.801 L 510.7 17.801 Z M 1006.1 79.201 L 938.6 79.201 L 938.6 62.801 L 943.6 62.801 L 943.6 17.801 L 938.6 17.801 L 938.6 1.401 L 1006.1 1.401 L 1006.1 31.601 L 983.7 31.601 L 983.7 17.801 L 971.6 17.801 L 971.6 33.601 L 980.4 33.601 L 980.4 45.001 L 971.6 45.001 L 971.6 62.801 L 983.7 62.801 L 983.7 47.001 L 1006.1 47.001 L 1006.1 79.201 Z M 292.5 79.201 L 292.5 62.801 L 297.5 62.801 L 297.5 17.801 L 292.5 17.801 L 292.5 1.401 L 338.4 1.401 A 50.31 50.31 0 0 1 345.824 1.912 Q 349.618 2.48 352.687 3.677 A 21.378 21.378 0 0 1 358.1 6.701 Q 364.052 11.34 364.794 21.035 A 37.554 37.554 0 0 1 364.9 23.901 A 27.986 27.986 0 0 1 364.346 29.604 A 20.997 20.997 0 0 1 362.2 35.501 Q 359.5 40.401 354.5 42.301 L 354.6 43.301 A 13.61 13.61 0 0 1 358.995 44.704 Q 364.2 47.517 364.2 55.101 L 364.2 62.801 L 368.9 62.801 L 368.9 79.201 L 337.2 79.201 L 337.2 55.701 A 21.428 21.428 0 0 0 337.109 53.658 Q 336.899 51.476 336.206 50.093 A 5.758 5.758 0 0 0 336.05 49.801 A 5.631 5.631 0 0 0 333.078 47.31 A 7.552 7.552 0 0 0 332.45 47.101 A 14.406 14.406 0 0 0 330.719 46.732 Q 328.893 46.448 326.351 46.408 A 54.118 54.118 0 0 0 325.5 46.401 L 325.5 62.801 L 332.1 62.801 L 332.1 79.201 L 292.5 79.201 Z M 1009.9 79.201 L 1009.9 62.801 L 1014.9 62.801 L 1014.9 17.801 L 1009.9 17.801 L 1009.9 1.401 L 1055.8 1.401 A 50.31 50.31 0 0 1 1063.224 1.912 Q 1067.018 2.48 1070.087 3.677 A 21.378 21.378 0 0 1 1075.5 6.701 Q 1081.452 11.34 1082.194 21.035 A 37.554 37.554 0 0 1 1082.3 23.901 A 27.986 27.986 0 0 1 1081.746 29.604 A 20.997 20.997 0 0 1 1079.6 35.501 Q 1076.9 40.401 1071.9 42.301 L 1072 43.301 A 13.61 13.61 0 0 1 1076.395 44.704 Q 1081.6 47.517 1081.6 55.101 L 1081.6 62.801 L 1086.3 62.801 L 1086.3 79.201 L 1054.6 79.201 L 1054.6 55.701 A 21.428 21.428 0 0 0 1054.509 53.658 Q 1054.299 51.476 1053.606 50.093 A 5.758 5.758 0 0 0 1053.45 49.801 A 5.631 5.631 0 0 0 1050.478 47.31 A 7.552 7.552 0 0 0 1049.85 47.101 A 14.406 14.406 0 0 0 1048.119 46.732 Q 1046.293 46.448 1043.751 46.408 A 54.118 54.118 0 0 0 1042.9 46.401 L 1042.9 62.801 L 1049.5 62.801 L 1049.5 79.201 L 1009.9 79.201 Z M 42.8 17.801 L 42.8 1.401 L 76.2 1.401 L 76.2 17.801 L 72.2 17.801 L 54.3 79.201 L 21.9 79.201 L 4 17.801 L 0 17.801 L 0 1.401 L 38.4 1.401 L 38.4 17.801 L 33.2 17.801 L 40.1 51.301 L 41.1 51.301 L 48 17.801 L 42.8 17.801 Z M 1089.6 75.201 L 1089.6 55.401 L 1111.6 55.401 Q 1111.6 57.248 1112.097 58.491 A 4.13 4.13 0 0 0 1113 59.901 A 3.796 3.796 0 0 0 1114.234 60.698 Q 1115.411 61.192 1117.25 61.281 A 17.472 17.472 0 0 0 1118.1 61.301 Q 1121.2 61.301 1122.55 60.351 A 3.089 3.089 0 0 0 1123.856 58.154 A 4.694 4.694 0 0 0 1123.9 57.501 Q 1123.9 55.901 1122.6 54.751 Q 1121.3 53.601 1118.1 52.401 L 1109.5 49.401 A 62.901 62.901 0 0 1 1103.173 46.63 Q 1096.884 43.42 1093.55 39.501 A 19.366 19.366 0 0 1 1089.628 31.823 Q 1088.7 28.345 1088.7 24.101 A 28.559 28.559 0 0 1 1089.595 16.734 A 19.566 19.566 0 0 1 1096.45 6.151 Q 1103.391 0.644 1118.632 0.068 A 97.313 97.313 0 0 1 1122.3 0.001 A 76.853 76.853 0 0 1 1133.766 0.829 A 66.083 66.083 0 0 1 1138.65 1.751 A 57.245 57.245 0 0 1 1143.947 3.217 Q 1148.053 4.583 1151 6.401 L 1151 24.301 L 1131 24.301 Q 1131 19.762 1125.891 19.344 A 13.375 13.375 0 0 0 1124.8 19.301 Q 1122.446 19.301 1121.169 19.763 A 3.551 3.551 0 0 0 1120.55 20.051 A 2.435 2.435 0 0 0 1119.441 21.555 Q 1119.319 21.996 1119.302 22.534 A 5.547 5.547 0 0 0 1119.3 22.701 A 3.178 3.178 0 0 0 1119.651 24.205 Q 1119.968 24.808 1120.572 25.272 A 4.25 4.25 0 0 0 1120.75 25.401 Q 1122.2 26.401 1125.5 27.501 L 1134.2 30.501 A 52.234 52.234 0 0 1 1140.537 33.095 Q 1146.391 35.988 1149.65 39.851 A 19.951 19.951 0 0 1 1153.818 48.426 A 29.08 29.08 0 0 1 1154.5 54.901 A 29.945 29.945 0 0 1 1153.535 62.734 A 20.644 20.644 0 0 1 1145.95 74.101 A 27.846 27.846 0 0 1 1137.691 78.31 Q 1133.811 79.581 1129.07 80.147 A 69.067 69.067 0 0 1 1120.9 80.601 A 99.739 99.739 0 0 1 1107.642 79.749 A 86.426 86.426 0 0 1 1102.75 78.951 Q 1094.821 77.421 1090.289 75.504 A 26.83 26.83 0 0 1 1089.6 75.201 Z M 904.7 17.801 L 904.7 1.401 L 935.4 1.401 L 935.4 17.801 L 931.4 17.801 L 912.1 52.401 L 912.1 62.801 L 917.1 62.801 L 917.1 79.201 L 879.1 79.201 L 879.1 62.801 L 884.1 62.801 L 884.1 52.401 L 864.2 17.801 L 860.2 17.801 L 860.2 1.401 L 898.9 1.401 L 898.9 17.801 L 895.4 17.801 L 901.3 33.301 L 902.3 33.301 L 908.2 17.801 L 904.7 17.801 Z M 621.9 1.401 L 621.9 25.601 L 604.7 25.601 L 604.7 17.801 L 598.3 17.801 L 598.3 62.801 L 605.3 62.801 L 605.3 79.201 L 563.3 79.201 L 563.3 62.801 L 570.3 62.801 L 570.3 17.801 L 563.9 17.801 L 563.9 25.601 L 546.7 25.601 L 546.7 1.401 L 621.9 1.401 Z M 123.9 1.401 L 140.8 62.801 L 144.8 62.801 L 144.8 79.201 L 105.6 79.201 L 105.6 62.801 L 111.6 62.801 L 110 54.801 L 96.4 54.801 L 94.8 62.801 L 100.8 62.801 L 100.8 79.201 L 66.6 79.201 L 66.6 62.801 L 70.6 62.801 L 87.5 1.401 L 123.9 1.401 Z M 429 1.401 L 445.9 62.801 L 449.9 62.801 L 449.9 79.201 L 410.7 79.201 L 410.7 62.801 L 416.7 62.801 L 415.1 54.801 L 401.5 54.801 L 399.9 62.801 L 405.9 62.801 L 405.9 79.201 L 371.7 79.201 L 371.7 62.801 L 375.7 62.801 L 392.6 1.401 L 429 1.401 Z M 850.9 1.401 L 867.8 62.801 L 871.8 62.801 L 871.8 79.201 L 832.6 79.201 L 832.6 62.801 L 838.6 62.801 L 837 54.801 L 823.4 54.801 L 821.8 62.801 L 827.8 62.801 L 827.8 79.201 L 793.6 79.201 L 793.6 62.801 L 797.6 62.801 L 814.5 1.401 L 850.9 1.401 Z M 209.9 79.201 L 148 79.201 L 148 62.801 L 153 62.801 L 153 17.801 L 148 17.801 L 148 1.401 L 190.2 1.401 L 190.2 17.801 L 181 17.801 L 181 62.801 L 190 62.801 L 190 53.601 L 209.9 53.601 L 209.9 79.201 Z M 791 79.201 L 729.1 79.201 L 729.1 62.801 L 734.1 62.801 L 734.1 17.801 L 729.1 17.801 L 729.1 1.401 L 771.3 1.401 L 771.3 17.801 L 762.1 17.801 L 762.1 62.801 L 771.1 62.801 L 771.1 53.601 L 791 53.601 L 791 79.201 Z M 655.3 79.201 L 655.3 62.801 L 660.3 62.801 L 660.3 17.801 L 655.3 17.801 L 655.3 1.401 L 699.2 1.401 Q 707.804 1.401 713.695 3.87 A 21.026 21.026 0 0 1 718.9 6.951 A 17.055 17.055 0 0 1 724.206 14.781 Q 725.21 17.676 725.539 21.249 A 39.82 39.82 0 0 1 725.7 24.901 A 35.648 35.648 0 0 1 725.132 31.498 Q 723.734 38.906 718.9 42.851 Q 713.632 47.151 704.704 48.12 A 51.085 51.085 0 0 1 699.2 48.401 L 688.3 48.401 L 688.3 62.801 L 697.9 62.801 L 697.9 79.201 L 655.3 79.201 Z M 239.79 79.568 A 56.03 56.03 0 0 0 250.9 80.601 A 65.361 65.361 0 0 0 254.33 80.513 Q 260.318 80.199 265.329 78.76 A 32.392 32.392 0 0 0 279.15 71.001 A 28.173 28.173 0 0 0 285.469 61.598 Q 287.409 57.029 288.313 51.26 A 70.996 70.996 0 0 0 289.1 40.301 A 73.291 73.291 0 0 0 288.514 30.738 Q 287.761 25.025 286.039 20.432 A 28.845 28.845 0 0 0 279.15 9.601 A 30.221 30.221 0 0 0 273.856 5.524 Q 268.706 2.391 262.01 1.035 A 56.03 56.03 0 0 0 250.9 0.001 A 65.361 65.361 0 0 0 247.47 0.089 Q 241.482 0.404 236.471 1.843 A 32.392 32.392 0 0 0 222.65 9.601 A 28.173 28.173 0 0 0 216.331 19.004 Q 214.391 23.574 213.487 29.342 A 70.996 70.996 0 0 0 212.7 40.301 A 73.291 73.291 0 0 0 213.286 49.865 Q 214.039 55.578 215.761 60.171 A 28.845 28.845 0 0 0 222.65 71.001 A 30.221 30.221 0 0 0 227.944 75.079 Q 233.094 78.212 239.79 79.568 Z M 257.7 55.401 L 257.7 25.201 A 13.497 13.497 0 0 0 257.558 23.172 Q 257.4 22.134 257.065 21.303 A 5.371 5.371 0 0 0 256 19.601 A 5.344 5.344 0 0 0 253.714 18.197 Q 252.856 17.919 251.813 17.836 A 11.576 11.576 0 0 0 250.9 17.801 A 10.208 10.208 0 0 0 248.952 17.975 Q 247.846 18.19 246.992 18.672 A 5.031 5.031 0 0 0 245.8 19.601 A 5.495 5.495 0 0 0 244.645 21.538 Q 244.339 22.388 244.204 23.441 A 13.949 13.949 0 0 0 244.1 25.201 L 244.1 55.401 A 14.136 14.136 0 0 0 244.234 57.425 Q 244.382 58.443 244.692 59.255 A 5.192 5.192 0 0 0 245.8 61.051 A 5.339 5.339 0 0 0 248.005 62.391 Q 248.863 62.673 249.908 62.761 A 11.796 11.796 0 0 0 250.9 62.801 A 10.208 10.208 0 0 0 252.848 62.628 Q 253.954 62.412 254.808 61.93 A 5.031 5.031 0 0 0 256 61.001 A 5.495 5.495 0 0 0 257.155 59.064 Q 257.461 58.215 257.596 57.162 A 13.949 13.949 0 0 0 257.7 55.401 Z M 102.7 24.301 L 98.6 44.201 L 107.8 44.201 L 103.7 24.301 L 102.7 24.301 Z M 407.8 24.301 L 403.7 44.201 L 412.9 44.201 L 408.8 24.301 L 407.8 24.301 Z M 829.7 24.301 L 825.6 44.201 L 834.8 44.201 L 830.7 24.301 L 829.7 24.301 Z M 325.5 34.201 L 330.9 34.201 Q 332.926 34.201 334.245 33.444 A 4.295 4.295 0 0 0 335.25 32.651 A 4.704 4.704 0 0 0 336.215 31.032 Q 336.7 29.709 336.7 27.801 L 336.7 24.201 Q 336.7 22.184 336.158 20.821 A 4.622 4.622 0 0 0 335.25 19.351 Q 333.986 18.001 331.622 17.827 A 9.858 9.858 0 0 0 330.9 17.801 L 325.5 17.801 L 325.5 34.201 Z M 1042.9 34.201 L 1048.3 34.201 Q 1050.326 34.201 1051.645 33.444 A 4.295 4.295 0 0 0 1052.65 32.651 A 4.704 4.704 0 0 0 1053.615 31.032 Q 1054.1 29.709 1054.1 27.801 L 1054.1 24.201 Q 1054.1 22.184 1053.558 20.821 A 4.622 4.622 0 0 0 1052.65 19.351 Q 1051.386 18.001 1049.022 17.827 A 9.858 9.858 0 0 0 1048.3 17.801 L 1042.9 17.801 L 1042.9 34.201 Z M 688.3 34.201 L 691.7 34.201 Q 697.418 34.201 697.499 27.982 A 13.825 13.825 0 0 0 697.5 27.801 L 697.5 24.201 Q 697.5 22.184 696.958 20.821 A 4.622 4.622 0 0 0 696.05 19.351 Q 694.786 18.001 692.422 17.827 A 9.858 9.858 0 0 0 691.7 17.801 L 688.3 17.801 L 688.3 34.201 Z" vector-effect="non-scaling-stroke"/></g></svg>